<?xml version="1.0" encoding="utf-8"?>
<!-- Generator: Adobe Illustrator 21.0.0, SVG Export Plug-In . SVG Version: 6.00 Build 0)  -->
<svg version="1.1" id="Layer_1" xmlns="http://www.w3.org/2000/svg" xmlns:xlink="http://www.w3.org/1999/xlink" x="0px" y="0px"
	 viewBox="0 0 100 100" style="enable-background:new 0 0 100 100;" xml:space="preserve">
<style type="text/css">
	.st0{fill:none;stroke:#000000;stroke-width:2;stroke-linejoin:bevel;stroke-miterlimit:10;}
	.st1{fill:none;stroke:#000000;stroke-width:2;stroke-linejoin:bevel;}
</style>
<line class="st0" x1="49.7" y1="55" x2="49.7" y2="22"/>
<path class="st0" d="M77,31.4c0,0.5,0,0.9,0,1.4c-0.3,6.1-3.3,11.8-5.8,17.3c-2,4.3-20.8,44.8-21.6,46.5c-2.8-6-17.1-36.7-21.4-46
	c-2.7-5.7-5.7-11.3-6.1-17.7c0-0.5,0-0.9,0-1.4C22.1,16.2,34.3,4,49.5,4S76.9,16.2,77,31.4z"/>
<polyline class="st0" points="58.5,34.1 49.7,22 40.8,34.1 "/>
</svg>
