<?xml version="1.0" encoding="utf-8"?>
<svg viewBox="0 0 40 24" width="40" height="24" xmlns="http://www.w3.org/2000/svg">
  <radialGradient id="SVGID_1_" cx="57.3882" cy="57.021" r="264.5797" gradientUnits="userSpaceOnUse" gradientTransform="matrix(0.084356, 0, 0, 0.084355, 7.509301, -0.640151)">
    <stop offset="0" style="stop-color:#9DD5F6"/>
    <stop offset="0.0711" style="stop-color:#98D3F5"/>
    <stop offset="0.1575" style="stop-color:#89CEF3"/>
    <stop offset="0.2516" style="stop-color:#70C6EF"/>
    <stop offset="0.3514" style="stop-color:#4EBBEA"/>
    <stop offset="0.4546" style="stop-color:#23ADE3"/>
    <stop offset="0.5" style="stop-color:#0DA6E0"/>
    <stop offset="1" style="stop-color:#2E77BC"/>
  </radialGradient>
  <path fill="url(#SVGID_1_)" d="M 31.937 0 L 8.154 0 L 8.154 23.87 L 31.937 23.87 L 31.937 15.993 C 32.032 15.856 32.078 15.682 32.078 15.468 C 32.078 15.223 32.032 15.072 31.937 14.945" style="stroke-width: 0.085;" transform="matrix(1, 0, 0, 1, 0, -4.440892098500626e-16)"/>
  <g transform="matrix(0.08243800822553049, 0, 0, 0.08243800822553049, 8.154020430952613, -4.440892098500626e-16)">
    <defs>
      <path id="SVGID_2_" d="M289.584,7.598H7.639v282.966h281.945v-93.386c1.12-1.619,1.673-3.69,1.673-6.222&#10;&#9;&#9;&#9;c0-2.898-0.553-4.693-1.673-6.205"/>
    </defs>
  </g>
  <path fill="#FFFFFF" d="M 10.298 10.358 L 9.839 9.244 L 9.386 10.358 M 20.377 9.915 C 20.286 9.97 20.177 9.972 20.046 9.972 L 19.234 9.972 L 19.234 9.351 L 20.058 9.351 C 20.173 9.351 20.296 9.356 20.374 9.401 C 20.461 9.442 20.515 9.528 20.515 9.649 C 20.515 9.771 20.464 9.869 20.377 9.915 Z M 26.171 10.358 L 25.708 9.244 L 25.248 10.358 L 26.171 10.358 Z M 15.371 11.565 L 14.686 11.565 L 14.683 9.375 L 13.714 11.565 L 13.127 11.565 L 12.155 9.372 L 12.155 11.565 L 10.796 11.565 L 10.539 10.941 L 9.148 10.941 L 8.888 11.565 L 8.162 11.565 L 9.358 8.769 L 10.352 8.769 L 11.488 11.416 L 11.488 8.769 L 12.58 8.769 L 13.454 10.665 L 14.258 8.769 L 15.371 8.769 L 15.371 11.565 Z M 18.102 11.565 L 15.869 11.565 L 15.869 8.769 L 18.102 8.769 L 18.102 9.351 L 16.539 9.351 L 16.539 9.855 L 18.064 9.855 L 18.064 10.428 L 16.539 10.428 L 16.539 10.987 L 18.102 10.987 L 18.102 11.565 Z M 21.251 9.521 C 21.251 9.968 20.954 10.197 20.78 10.267 C 20.926 10.323 21.052 10.421 21.112 10.502 C 21.206 10.641 21.222 10.765 21.222 11.016 L 21.222 11.565 L 20.548 11.565 L 20.546 11.212 C 20.546 11.044 20.561 10.802 20.439 10.667 C 20.342 10.57 20.193 10.547 19.952 10.547 L 19.234 10.547 L 19.234 11.565 L 18.566 11.565 L 18.566 8.769 L 20.104 8.769 C 20.445 8.769 20.697 8.778 20.913 8.902 C 21.125 9.028 21.251 9.21 21.251 9.521 Z M 22.321 11.565 L 21.64 11.565 L 21.64 8.769 L 22.321 8.769 L 22.321 11.565 Z M 30.234 11.565 L 29.287 11.565 L 28.02 9.466 L 28.02 11.565 L 26.659 11.565 L 26.399 10.941 L 25.01 10.941 L 24.757 11.565 L 23.975 11.565 C 23.65 11.565 23.239 11.494 23.007 11.255 C 22.771 11.018 22.648 10.697 22.648 10.188 C 22.648 9.774 22.721 9.394 23.01 9.094 C 23.226 8.872 23.563 8.769 24.024 8.769 L 24.671 8.769 L 24.671 9.367 L 24.038 9.367 C 23.794 9.367 23.655 9.404 23.523 9.533 C 23.409 9.651 23.331 9.874 23.331 10.167 C 23.331 10.466 23.39 10.682 23.514 10.824 C 23.618 10.935 23.805 10.968 23.982 10.968 L 24.281 10.968 L 25.224 8.769 L 26.225 8.769 L 27.356 11.414 L 27.356 8.769 L 28.375 8.769 L 29.549 10.716 L 29.549 8.769 L 30.234 8.769 L 30.234 11.565 Z M 8.154 12.115 L 9.296 12.115 L 9.554 11.494 L 10.13 11.494 L 10.387 12.115 L 12.635 12.115 L 12.635 11.639 L 12.835 12.117 L 14.001 12.117 L 14.201 11.632 L 14.201 12.115 L 19.787 12.115 L 19.784 11.095 L 19.893 11.095 C 19.968 11.098 19.99 11.104 19.99 11.229 L 19.99 12.115 L 22.879 12.115 L 22.879 11.877 C 23.112 12.001 23.474 12.115 23.951 12.115 L 25.167 12.115 L 25.427 11.494 L 26.003 11.494 L 26.258 12.115 L 28.599 12.115 L 28.599 11.524 L 28.953 12.115 L 30.83 12.115 L 30.83 8.214 L 28.973 8.214 L 28.973 8.675 L 28.713 8.214 L 26.808 8.214 L 26.808 8.675 L 26.569 8.214 L 23.994 8.214 C 23.563 8.214 23.185 8.273 22.879 8.441 L 22.879 8.214 L 21.103 8.214 L 21.103 8.441 C 20.908 8.269 20.643 8.214 20.347 8.214 L 13.859 8.214 L 13.422 9.221 L 12.975 8.214 L 10.931 8.214 L 10.931 8.675 L 10.706 8.214 L 8.963 8.214 L 8.154 10.068 L 8.154 12.115 Z" style="stroke-width: 0.085;" transform="matrix(1, 0, 0, 1, 0, -4.440892098500626e-16)"/>
  <path fill="#FFFFFF" d="M 31.937 14.178 L 30.719 14.178 C 30.597 14.178 30.516 14.182 30.448 14.228 C 30.378 14.274 30.352 14.34 30.352 14.429 C 30.352 14.535 30.411 14.606 30.497 14.638 C 30.567 14.662 30.643 14.669 30.754 14.669 L 31.116 14.679 C 31.483 14.688 31.726 14.751 31.875 14.904 C 31.903 14.925 31.918 14.949 31.937 14.973 M 31.937 16.022 C 31.775 16.259 31.459 16.38 31.03 16.38 L 29.74 16.38 L 29.74 15.779 L 31.025 15.779 C 31.153 15.779 31.242 15.763 31.295 15.711 C 31.342 15.668 31.374 15.604 31.374 15.527 C 31.374 15.446 31.342 15.381 31.293 15.342 C 31.245 15.3 31.174 15.281 31.057 15.281 C 30.429 15.259 29.647 15.3 29.647 14.414 C 29.647 14.01 29.904 13.582 30.605 13.582 L 31.937 13.582 L 31.937 13.025 L 30.699 13.025 C 30.327 13.025 30.056 13.115 29.863 13.254 L 29.863 13.025 L 28.033 13.025 C 27.741 13.025 27.397 13.098 27.235 13.254 L 27.235 13.025 L 23.966 13.025 L 23.966 13.254 C 23.707 13.066 23.269 13.025 23.066 13.025 L 20.911 13.025 L 20.911 13.254 C 20.704 13.055 20.247 13.025 19.968 13.025 L 17.557 13.025 L 17.004 13.623 L 16.487 13.025 L 12.884 13.025 L 12.884 16.928 L 16.419 16.928 L 16.987 16.322 L 17.524 16.928 L 19.703 16.93 L 19.703 16.013 L 19.916 16.013 C 20.206 16.018 20.548 16.005 20.849 15.875 L 20.849 16.928 L 22.646 16.928 L 22.646 15.912 L 22.732 15.912 C 22.843 15.912 22.854 15.916 22.854 16.027 L 22.854 16.928 L 28.315 16.928 C 28.662 16.928 29.024 16.84 29.225 16.679 L 29.225 16.928 L 30.956 16.928 C 31.318 16.928 31.67 16.878 31.937 16.749 L 31.937 16.022 Z M 29.27 14.904 C 29.401 15.039 29.471 15.209 29.471 15.496 C 29.471 16.098 29.095 16.38 28.421 16.38 L 27.119 16.38 L 27.119 15.779 L 28.416 15.779 C 28.541 15.779 28.631 15.763 28.688 15.711 C 28.734 15.668 28.768 15.604 28.768 15.527 C 28.768 15.446 28.732 15.381 28.686 15.342 C 28.635 15.3 28.564 15.281 28.447 15.281 C 27.822 15.259 27.039 15.3 27.039 14.414 C 27.039 14.01 27.294 13.582 27.996 13.582 L 29.335 13.582 L 29.335 14.178 L 28.11 14.178 C 27.988 14.178 27.909 14.182 27.842 14.228 C 27.768 14.274 27.741 14.34 27.741 14.429 C 27.741 14.535 27.804 14.606 27.888 14.638 C 27.958 14.662 28.033 14.669 28.147 14.669 L 28.508 14.679 C 28.871 14.688 29.12 14.751 29.27 14.904 Z M 23.239 14.731 C 23.149 14.784 23.038 14.79 22.908 14.79 L 22.097 14.79 L 22.097 14.16 L 22.92 14.16 C 23.038 14.16 23.158 14.163 23.239 14.21 C 23.326 14.256 23.377 14.343 23.377 14.462 C 23.377 14.583 23.326 14.679 23.239 14.731 Z M 23.642 15.079 C 23.791 15.133 23.912 15.233 23.97 15.315 C 24.064 15.452 24.077 15.579 24.08 15.825 L 24.08 16.38 L 23.409 16.38 L 23.409 16.03 C 23.409 15.862 23.426 15.612 23.301 15.481 C 23.203 15.381 23.056 15.358 22.811 15.358 L 22.097 15.358 L 22.097 16.38 L 21.425 16.38 L 21.425 13.582 L 22.969 13.582 C 23.306 13.582 23.553 13.597 23.772 13.714 C 23.984 13.841 24.116 14.016 24.116 14.335 C 24.116 14.782 23.818 15.01 23.642 15.079 Z M 24.486 13.582 L 26.718 13.582 L 26.718 14.16 L 25.152 14.16 L 25.152 14.669 L 26.68 14.669 L 26.68 15.239 L 25.152 15.239 L 25.152 15.796 L 26.718 15.799 L 26.718 16.38 L 24.486 16.38 L 24.486 13.582 Z M 19.977 14.872 L 19.113 14.872 L 19.113 14.16 L 19.985 14.16 C 20.225 14.16 20.393 14.259 20.393 14.503 C 20.393 14.746 20.234 14.872 19.977 14.872 Z M 18.447 16.125 L 17.421 14.986 L 18.447 13.882 L 18.447 16.125 Z M 15.796 15.796 L 14.152 15.796 L 14.152 15.239 L 15.621 15.239 L 15.621 14.669 L 14.152 14.669 L 14.152 14.16 L 15.828 14.16 L 16.56 14.976 L 15.796 15.796 Z M 21.112 14.503 C 21.112 15.281 20.53 15.44 19.947 15.44 L 19.113 15.44 L 19.113 16.38 L 17.814 16.38 L 16.991 15.454 L 16.135 16.38 L 13.486 16.38 L 13.486 13.582 L 16.176 13.582 L 16.998 14.499 L 17.848 13.582 L 19.985 13.582 C 20.515 13.582 21.112 13.728 21.112 14.503 Z" style="stroke-width: 0.085;" transform="matrix(1, 0, 0, 1, 0, -4.440892098500626e-16)"/>
</svg>